<?xml version="1.0" standalone="no"?>
<!DOCTYPE svg PUBLIC "-//W3C//DTD SVG 20010904//EN"
 "http://www.w3.org/TR/2001/REC-SVG-20010904/DTD/svg10.dtd">
<svg version="1.0" xmlns="http://www.w3.org/2000/svg"
 width="512.000000pt" height="512.000000pt" viewBox="0 0 512.000000 512.000000"
 preserveAspectRatio="xMidYMid meet">
<metadata>
Created by potrace 1.11, written by Peter Selinger 2001-2013
</metadata>
<g transform="translate(0.000000,512.000000) scale(0.100000,-0.100000)"
fill="#000000" stroke="none">
<path d="M0 2560 l0 -2560 2560 0 2560 0 0 2560 0 2560 -2560 0 -2560 0 0
-2560z m1430 1480 l0 -40 40 0 40 0 0 40 0 40 40 0 40 0 0 -115 0 -115 -80 0
-80 0 0 34 c0 33 -2 35 -37 38 -36 3 -38 5 -41 41 -3 36 -4 37 -43 37 l-39 0
0 -155 0 -155 80 0 80 0 0 -40 0 -40 -80 0 -80 0 0 -115 0 -115 40 0 40 0 0
-40 0 -40 -40 0 -40 0 0 -40 0 -40 -75 0 -75 0 0 195 0 195 -40 0 -40 0 0 40
0 40 40 0 40 0 0 114 0 115 38 3 c35 3 37 5 40 41 3 35 5 37 38 37 33 0 34 1
34 40 l0 40 80 0 80 0 0 -40z m2180 -155 l0 -195 40 0 40 0 0 40 0 40 40 0 40
0 0 75 0 75 75 0 75 0 0 -75 0 -75 -35 0 c-34 0 -35 -1 -35 -40 0 -39 1 -40
34 -40 33 0 35 -2 38 -37 3 -36 5 -38 41 -41 l37 -3 0 -115 0 -114 40 0 40 0
0 -40 0 -40 -40 0 -40 0 0 -40 0 -40 -75 0 -75 0 0 155 0 155 -40 0 -40 0 0
40 0 40 -40 0 -40 0 0 -40 0 -40 -40 0 -40 0 0 -75 0 -75 40 0 40 0 0 -40 0
-40 -40 0 -40 0 0 -40 0 -40 -75 0 -75 0 -2 313 -3 312 -37 3 c-36 3 -38 5
-38 37 0 32 2 34 38 37 35 3 37 5 40 41 3 35 5 37 38 37 33 0 34 1 34 40 l0
40 40 0 40 0 0 -195z m-1632 -77 c3 -36 5 -38 37 -38 32 0 34 2 37 38 l3 37
78 3 77 3 0 -41 0 -40 40 0 40 0 0 -40 0 -40 -40 0 -40 0 0 -275 0 -275 -40 0
c-39 0 -40 -1 -40 -35 0 -34 -1 -35 -40 -35 l-40 0 0 -40 0 -40 -155 0 -155 0
0 40 0 40 -40 0 -40 0 0 75 0 75 80 0 80 0 0 40 0 40 -40 0 -40 0 0 40 0 40
-40 0 -40 0 0 155 0 155 40 0 40 0 0 40 0 40 40 0 40 0 0 40 0 41 78 -3 77 -3
3 -37z m622 -38 l0 -80 40 0 40 0 0 40 c0 39 1 40 34 40 33 0 35 2 38 38 l3
37 78 3 77 3 0 -81 0 -80 40 0 40 0 0 40 0 40 40 0 40 0 0 40 0 40 75 0 75 0
0 -235 0 -235 40 0 40 0 0 -40 0 -40 -40 0 -40 0 0 -40 0 -40 -75 0 -75 0 0
235 0 235 -40 0 -40 0 0 -40 0 -40 -40 0 -40 0 0 -195 0 -196 -77 3 -78 3 -3
233 -2 232 -35 0 c-34 0 -35 -1 -35 -40 l0 -40 -40 0 -40 0 0 -195 0 -195 -80
0 -80 0 0 195 0 195 -35 0 c-34 0 -35 1 -35 40 0 39 1 40 35 40 34 0 35 1 35
40 l0 40 40 0 40 0 0 40 0 40 40 0 40 0 0 -80z"/>
<path d="M1820 3575 l0 -195 40 0 40 0 0 -40 0 -40 41 0 40 0 -3 -37 -3 -38
-77 -3 -78 -3 0 -39 c0 -40 0 -40 40 -40 39 0 40 -1 40 -35 l0 -35 75 0 75 0
0 115 0 115 -35 0 c-34 0 -35 1 -35 40 0 39 1 40 35 40 l35 0 0 115 0 115 -35
0 c-34 0 -35 1 -35 40 l0 40 -40 0 -40 0 0 40 0 40 -40 0 -40 0 0 -195z"/>
</g>
</svg>
